# Blender v2.82 (sub 7) OBJ File: 'sheep.blend'
# www.blender.org
o body_Cube
v 1.031639 2.964125 -2.109220
v 1.031639 0.900847 -2.109220
v 1.031639 2.964125 1.888530
v 1.031639 0.900847 1.888530
v -1.031639 2.964125 -2.109220
v -1.031639 0.900847 -2.109220
v -1.031639 2.964125 1.888530
v -1.031639 0.900847 1.888530
vt 0.871094 0.275000
vt 0.734375 0.028846
vt 0.871094 0.028846
vt 0.654297 0.369231
vt 0.531250 0.275000
vt 0.654297 0.275000
vt 0.531250 0.275000
vt 0.437500 0.028846
vt 0.531250 0.028846
vt 0.654297 0.275000
vt 0.654297 0.028846
vt 0.734375 0.275000
vt 0.654297 0.028846
vt 0.734375 0.028846
vt 0.654297 0.369231
vt 0.531250 0.275000
vt 0.654297 0.275000
vt 0.734375 0.275000
vt 0.531250 0.369231
vt 0.437500 0.275000
vt 0.531250 0.275000
vt 0.654297 0.275000
vt 0.531250 0.369231
vn 0.0000 1.0000 0.0000
vn 0.0000 0.0000 1.0000
vn -1.0000 0.0000 0.0000
vn 0.0000 -1.0000 0.0000
vn 1.0000 0.0000 0.0000
vn 0.0000 0.0000 -1.0000
s off
f 5/1/1 3/2/1 1/3/1
f 3/4/2 8/5/2 4/6/2
f 7/7/3 6/8/3 8/9/3
f 2/10/4 8/9/4 6/11/4
f 1/12/5 4/13/5 2/14/5
f 5/15/6 2/16/6 6/17/6
f 5/1/1 7/18/1 3/2/1
f 3/4/2 7/19/2 8/5/2
f 7/7/3 5/20/3 6/8/3
f 2/10/4 4/21/4 8/9/4
f 1/12/5 3/22/5 4/13/5
f 5/15/6 1/23/6 2/16/6
o legs1_Cube.001
v 0.359841 0.018435 1.354415
v 0.359841 1.369208 1.354415
v 0.359841 0.018435 0.928406
v 0.359841 1.369208 0.928406
v 0.841104 0.018435 1.354415
v 0.841104 1.369208 1.354415
v 0.841104 0.018435 0.928406
v 0.841104 1.369208 0.928406
v -0.359841 0.018435 1.354415
v -0.359841 1.369208 1.354415
v -0.359841 0.018435 0.928406
v -0.359841 1.369208 0.928406
v -0.841104 0.018435 1.354415
v -0.841104 1.369208 1.354415
v -0.841104 0.018435 0.928406
v -0.841104 1.369208 0.928406
vt 0.625000 0.000000
vt 0.375000 0.250000
vt 0.375000 0.000000
vt 0.625000 0.250000
vt 0.375000 0.500000
vt 0.625000 0.500000
vt 0.375000 0.750000
vt 0.625000 0.750000
vt 0.375000 1.000000
vt 0.125000 0.750000
vt 0.125000 0.500000
vt 0.875000 0.500000
vt 0.375000 0.250000
vt 0.625000 0.000000
vt 0.375000 0.000000
vt 0.375000 0.500000
vt 0.625000 0.250000
vt 0.375000 0.750000
vt 0.625000 0.500000
vt 0.375000 1.000000
vt 0.625000 0.750000
vt 0.125000 0.750000
vt 0.125000 0.500000
vt 0.875000 0.500000
vt 0.625000 1.000000
vt 0.875000 0.750000
vt 0.625000 1.000000
vt 0.875000 0.750000
vn -1.0000 0.0000 0.0000
vn 0.0000 0.0000 -1.0000
vn 1.0000 0.0000 0.0000
vn 0.0000 0.0000 1.0000
vn 0.0000 -1.0000 0.0000
vn 0.0000 1.0000 0.0000
s off
f 10/24/7 11/25/7 9/26/7
f 12/27/8 15/28/8 11/25/8
f 16/29/9 13/30/9 15/28/9
f 14/31/10 9/32/10 13/30/10
f 15/28/11 9/33/11 11/34/11
f 12/35/12 14/31/12 16/29/12
f 19/36/9 18/37/9 17/38/9
f 23/39/8 20/40/8 19/36/8
f 21/41/7 24/42/7 23/39/7
f 17/43/10 22/44/10 21/41/10
f 17/45/11 23/39/11 19/46/11
f 22/44/12 20/47/12 24/42/12
f 10/24/7 12/27/7 11/25/7
f 12/27/8 16/29/8 15/28/8
f 16/29/9 14/31/9 13/30/9
f 14/31/10 10/48/10 9/32/10
f 15/28/11 13/30/11 9/33/11
f 12/35/12 10/49/12 14/31/12
f 19/36/9 20/40/9 18/37/9
f 23/39/8 24/42/8 20/40/8
f 21/41/7 22/44/7 24/42/7
f 17/43/10 18/50/10 22/44/10
f 17/45/11 21/41/11 23/39/11
f 22/44/12 18/51/12 20/47/12
o legs2_Cube.002
v 0.318452 0.026713 -1.220621
v 0.318452 1.377486 -1.220621
v 0.318452 0.026713 -1.646630
v 0.318452 1.377486 -1.646630
v 0.799715 0.026713 -1.220621
v 0.799715 1.377486 -1.220621
v 0.799715 0.026713 -1.646630
v 0.799715 1.377486 -1.646630
v -0.318452 0.026713 -1.220621
v -0.318452 1.377486 -1.220621
v -0.318452 0.026713 -1.646630
v -0.318452 1.377486 -1.646630
v -0.799715 0.026713 -1.220621
v -0.799715 1.377486 -1.220621
v -0.799715 0.026713 -1.646630
v -0.799715 1.377486 -1.646630
vt 0.625000 0.000000
vt 0.375000 0.250000
vt 0.375000 0.000000
vt 0.625000 0.250000
vt 0.375000 0.500000
vt 0.625000 0.500000
vt 0.375000 0.750000
vt 0.625000 0.750000
vt 0.375000 1.000000
vt 0.125000 0.750000
vt 0.125000 0.500000
vt 0.875000 0.500000
vt 0.375000 0.250000
vt 0.625000 0.000000
vt 0.375000 0.000000
vt 0.375000 0.500000
vt 0.625000 0.250000
vt 0.375000 0.750000
vt 0.625000 0.500000
vt 0.375000 1.000000
vt 0.625000 0.750000
vt 0.125000 0.750000
vt 0.125000 0.500000
vt 0.875000 0.500000
vt 0.625000 1.000000
vt 0.875000 0.750000
vt 0.625000 1.000000
vt 0.875000 0.750000
vn -1.0000 0.0000 0.0000
vn 0.0000 0.0000 -1.0000
vn 1.0000 0.0000 0.0000
vn 0.0000 0.0000 1.0000
vn 0.0000 -1.0000 0.0000
vn 0.0000 1.0000 0.0000
s off
f 26/52/13 27/53/13 25/54/13
f 28/55/14 31/56/14 27/53/14
f 32/57/15 29/58/15 31/56/15
f 30/59/16 25/60/16 29/58/16
f 31/56/17 25/61/17 27/62/17
f 28/63/18 30/59/18 32/57/18
f 35/64/15 34/65/15 33/66/15
f 39/67/14 36/68/14 35/64/14
f 37/69/13 40/70/13 39/67/13
f 33/71/16 38/72/16 37/69/16
f 33/73/17 39/67/17 35/74/17
f 38/72/18 36/75/18 40/70/18
f 26/52/13 28/55/13 27/53/13
f 28/55/14 32/57/14 31/56/14
f 32/57/15 30/59/15 29/58/15
f 30/59/16 26/76/16 25/60/16
f 31/56/17 29/58/17 25/61/17
f 28/63/18 26/77/18 30/59/18
f 35/64/15 36/68/15 34/65/15
f 39/67/14 40/70/14 36/68/14
f 37/69/13 38/72/13 40/70/13
f 33/71/16 34/78/16 38/72/16
f 33/73/17 37/69/17 39/67/17
f 38/72/18 34/79/18 36/75/18
o head_Cube.003
v -0.632742 2.098953 2.395928
v -0.632742 3.347882 2.395928
v -0.632742 2.098953 1.146999
v -0.632742 3.347882 1.146999
v 0.616186 2.098953 2.395928
v 0.616186 3.347882 2.395928
v 0.616186 2.098953 1.146999
v 0.616186 3.347882 1.146999
vt 0.625000 0.000000
vt 0.375000 0.250000
vt 0.375000 0.000000
vt 0.625000 0.250000
vt 0.375000 0.500000
vt 0.625000 0.500000
vt 0.375000 0.750000
vt 0.625000 0.750000
vt 0.375000 1.000000
vt 0.125000 0.750000
vt 0.125000 0.500000
vt 0.875000 0.500000
vt 0.625000 1.000000
vt 0.875000 0.750000
vn -1.0000 0.0000 0.0000
vn 0.0000 0.0000 -1.0000
vn 1.0000 0.0000 0.0000
vn 0.0000 0.0000 1.0000
vn 0.0000 -1.0000 0.0000
vn 0.0000 1.0000 0.0000
s off
f 42/80/19 43/81/19 41/82/19
f 44/83/20 47/84/20 43/81/20
f 48/85/21 45/86/21 47/84/21
f 46/87/22 41/88/22 45/86/22
f 47/84/23 41/89/23 43/90/23
f 44/91/24 46/87/24 48/85/24
f 42/80/19 44/83/19 43/81/19
f 44/83/20 48/85/20 47/84/20
f 48/85/21 46/87/21 45/86/21
f 46/87/22 42/92/22 41/88/22
f 47/84/23 45/86/23 41/89/23
f 44/91/24 42/93/24 46/87/24
