# Blender v2.82 (sub 7) OBJ File: 'sheep.blend'
# www.blender.org
o body_Cube
v 1.031639 2.964125 -2.109220
v 1.031639 0.900847 -2.109220
v 1.031639 2.964125 1.888530
v 1.031639 0.900847 1.888530
v -1.031639 2.964125 -2.109220
v -1.031639 0.900847 -2.109220
v -1.031639 2.964125 1.888530
v -1.031639 0.900847 1.888530
vt 0.656636 0.275663
vt 0.533084 0.028200
vt 0.656222 0.028763
vt 0.656427 0.368522
vt 0.532455 0.277152
vt 0.656055 0.277400
vt 0.530712 0.275758
vt 0.437571 0.030231
vt 0.531275 0.030189
vt 0.519813 0.550597
vt 0.440206 0.229354
vt 0.520376 0.229917
vt 0.735799 0.276450
vt 0.656192 0.029106
vt 0.736362 0.029669
vt 0.648635 0.369084
vt 0.531501 0.278018
vt 0.649198 0.277976
vt 0.533497 0.275100
vt 0.532827 0.368274
vt 0.437008 0.275801
vt 0.439643 0.550035
vt 0.655629 0.275887
vt 0.531554 0.368521
vn 0.0000 1.0000 0.0000
vn 0.0000 0.0000 1.0000
vn -1.0000 0.0000 0.0000
vn 0.0000 -1.0000 0.0000
vn 1.0000 0.0000 0.0000
vn 0.0000 0.0000 -1.0000
s off
f 5/1/1 3/2/1 1/3/1
f 3/4/2 8/5/2 4/6/2
f 7/7/3 6/8/3 8/9/3
f 2/10/4 8/11/4 6/12/4
f 1/13/5 4/14/5 2/15/5
f 5/16/6 2/17/6 6/18/6
f 5/1/1 7/19/1 3/2/1
f 3/4/2 7/20/2 8/5/2
f 7/7/3 5/21/3 6/8/3
f 2/10/4 4/22/4 8/11/4
f 1/13/5 3/23/5 4/14/5
f 5/16/6 1/24/6 2/17/6
o legs1_Cube.001
v 0.359841 0.018435 1.354415
v 0.359841 1.369208 1.354415
v 0.359841 0.018435 0.928406
v 0.359841 1.369208 0.928406
v 0.841104 0.018435 1.354415
v 0.841104 1.369208 1.354415
v 0.841104 0.018435 0.928406
v 0.841104 1.369208 0.928406
v -0.359841 0.018435 1.354415
v -0.359841 1.369208 1.354415
v -0.359841 0.018435 0.928406
v -0.359841 1.369208 0.928406
v -0.841104 0.018435 1.354415
v -0.841104 1.369208 1.354415
v -0.841104 0.018435 0.928406
v -0.841104 1.369208 0.928406
vt 0.625000 0.000000
vt 0.375000 0.250000
vt 0.375000 0.000000
vt 0.625000 0.250000
vt 0.375000 0.500000
vt 0.625000 0.500000
vt 0.375000 0.750000
vt 0.625000 0.750000
vt 0.375000 1.000000
vt 0.125000 0.750000
vt 0.125000 0.500000
vt 0.875000 0.500000
vt 0.375000 0.250000
vt 0.625000 0.000000
vt 0.375000 0.000000
vt 0.375000 0.500000
vt 0.625000 0.250000
vt 0.375000 0.750000
vt 0.625000 0.500000
vt 0.375000 1.000000
vt 0.625000 0.750000
vt 0.125000 0.750000
vt 0.125000 0.500000
vt 0.875000 0.500000
vt 0.625000 1.000000
vt 0.875000 0.750000
vt 0.625000 1.000000
vt 0.875000 0.750000
vn -1.0000 0.0000 0.0000
vn 0.0000 0.0000 -1.0000
vn 1.0000 0.0000 0.0000
vn 0.0000 0.0000 1.0000
vn 0.0000 -1.0000 0.0000
vn 0.0000 1.0000 0.0000
s off
f 10/25/7 11/26/7 9/27/7
f 12/28/8 15/29/8 11/26/8
f 16/30/9 13/31/9 15/29/9
f 14/32/10 9/33/10 13/31/10
f 15/29/11 9/34/11 11/35/11
f 12/36/12 14/32/12 16/30/12
f 19/37/9 18/38/9 17/39/9
f 23/40/8 20/41/8 19/37/8
f 21/42/7 24/43/7 23/40/7
f 17/44/10 22/45/10 21/42/10
f 17/46/11 23/40/11 19/47/11
f 22/45/12 20/48/12 24/43/12
f 10/25/7 12/28/7 11/26/7
f 12/28/8 16/30/8 15/29/8
f 16/30/9 14/32/9 13/31/9
f 14/32/10 10/49/10 9/33/10
f 15/29/11 13/31/11 9/34/11
f 12/36/12 10/50/12 14/32/12
f 19/37/9 20/41/9 18/38/9
f 23/40/8 24/43/8 20/41/8
f 21/42/7 22/45/7 24/43/7
f 17/44/10 18/51/10 22/45/10
f 17/46/11 21/42/11 23/40/11
f 22/45/12 18/52/12 20/48/12
o legs2_Cube.002
v 0.318452 0.026713 -1.220621
v 0.318452 1.377486 -1.220621
v 0.318452 0.026713 -1.646630
v 0.318452 1.377486 -1.646630
v 0.799715 0.026713 -1.220621
v 0.799715 1.377486 -1.220621
v 0.799715 0.026713 -1.646630
v 0.799715 1.377486 -1.646630
v -0.318452 0.026713 -1.220621
v -0.318452 1.377486 -1.220621
v -0.318452 0.026713 -1.646630
v -0.318452 1.377486 -1.646630
v -0.799715 0.026713 -1.220621
v -0.799715 1.377486 -1.220621
v -0.799715 0.026713 -1.646630
v -0.799715 1.377486 -1.646630
vt 0.625000 0.000000
vt 0.375000 0.250000
vt 0.375000 0.000000
vt 0.625000 0.250000
vt 0.375000 0.500000
vt 0.625000 0.500000
vt 0.375000 0.750000
vt 0.625000 0.750000
vt 0.375000 1.000000
vt 0.125000 0.750000
vt 0.125000 0.500000
vt 0.875000 0.500000
vt 0.375000 0.250000
vt 0.625000 0.000000
vt 0.375000 0.000000
vt 0.375000 0.500000
vt 0.625000 0.250000
vt 0.375000 0.750000
vt 0.625000 0.500000
vt 0.375000 1.000000
vt 0.625000 0.750000
vt 0.125000 0.750000
vt 0.125000 0.500000
vt 0.875000 0.500000
vt 0.625000 1.000000
vt 0.875000 0.750000
vt 0.625000 1.000000
vt 0.875000 0.750000
vn -1.0000 0.0000 0.0000
vn 0.0000 0.0000 -1.0000
vn 1.0000 0.0000 0.0000
vn 0.0000 0.0000 1.0000
vn 0.0000 -1.0000 0.0000
vn 0.0000 1.0000 0.0000
s off
f 26/53/13 27/54/13 25/55/13
f 28/56/14 31/57/14 27/54/14
f 32/58/15 29/59/15 31/57/15
f 30/60/16 25/61/16 29/59/16
f 31/57/17 25/62/17 27/63/17
f 28/64/18 30/60/18 32/58/18
f 35/65/15 34/66/15 33/67/15
f 39/68/14 36/69/14 35/65/14
f 37/70/13 40/71/13 39/68/13
f 33/72/16 38/73/16 37/70/16
f 33/74/17 39/68/17 35/75/17
f 38/73/18 36/76/18 40/71/18
f 26/53/13 28/56/13 27/54/13
f 28/56/14 32/58/14 31/57/14
f 32/58/15 30/60/15 29/59/15
f 30/60/16 26/77/16 25/61/16
f 31/57/17 29/59/17 25/62/17
f 28/64/18 26/78/18 30/60/18
f 35/65/15 36/69/15 34/66/15
f 39/68/14 40/71/14 36/69/14
f 37/70/13 38/73/13 40/71/13
f 33/72/16 34/79/16 38/73/16
f 33/74/17 37/70/17 39/68/17
f 38/73/18 34/80/18 36/76/18
o head_Cube.003
v -0.632742 2.098953 2.395928
v -0.632742 3.347882 2.395928
v -0.632742 2.098953 1.146999
v -0.632742 3.347882 1.146999
v 0.616186 2.098953 2.395928
v 0.616186 3.347882 2.395928
v 0.616186 2.098953 1.146999
v 0.616186 3.347882 1.146999
vt 0.625000 0.000000
vt 0.375000 0.250000
vt 0.375000 0.000000
vt 0.625000 0.250000
vt 0.375000 0.500000
vt 0.625000 0.500000
vt 0.375000 0.750000
vt 0.625000 0.750000
vt 0.375000 1.000000
vt 0.125000 0.750000
vt 0.125000 0.500000
vt 0.875000 0.500000
vt 0.625000 1.000000
vt 0.875000 0.750000
vn -1.0000 0.0000 0.0000
vn 0.0000 0.0000 -1.0000
vn 1.0000 0.0000 0.0000
vn 0.0000 0.0000 1.0000
vn 0.0000 -1.0000 0.0000
vn 0.0000 1.0000 0.0000
s off
f 42/81/19 43/82/19 41/83/19
f 44/84/20 47/85/20 43/82/20
f 48/86/21 45/87/21 47/85/21
f 46/88/22 41/89/22 45/87/22
f 47/85/23 41/90/23 43/91/23
f 44/92/24 46/88/24 48/86/24
f 42/81/19 44/84/19 43/82/19
f 44/84/20 48/86/20 47/85/20
f 48/86/21 46/88/21 45/87/21
f 46/88/22 42/93/22 41/89/22
f 47/85/23 45/87/23 41/90/23
f 44/92/24 42/94/24 46/88/24
